<mxfile host="app.diagrams.net" modified="2022-08-25T22:34:23.236Z" agent="5.0 (Windows NT 10.0; Win64; x64) AppleWebKit/537.36 (KHTML, like Gecko) Chrome/104.0.5112.102 Safari/537.36 Edg/104.0.1293.63" etag="P0xbq89pVQ9IZ3mIrOzc" version="20.2.7" type="github">
  <diagram id="QK-G4r99VR7Iopguges4" name="Page-1">
    <mxGraphModel dx="5190" dy="3995" grid="1" gridSize="10" guides="1" tooltips="1" connect="1" arrows="1" fold="1" page="1" pageScale="1" pageWidth="850" pageHeight="1100" math="0" shadow="0">
      <root>
        <mxCell id="0" />
        <mxCell id="1" parent="0" />
        <mxCell id="XOuvGOcxkD7HM2McUkYF-175" value="Users" style="swimlane;horizontal=0;startSize=80;strokeWidth=2;fontSize=20;" vertex="1" parent="1">
          <mxGeometry x="308.9830508474576" y="-424" width="3286.906779661017" height="295" as="geometry" />
        </mxCell>
        <mxCell id="XOuvGOcxkD7HM2McUkYF-176" style="edgeStyle=orthogonalEdgeStyle;shape=connector;rounded=0;orthogonalLoop=1;jettySize=auto;html=1;exitX=1;exitY=0.5;exitDx=0;exitDy=0;exitPerimeter=0;labelBackgroundColor=default;fontFamily=Helvetica;fontSize=11;fontColor=default;startArrow=none;startFill=0;endArrow=classic;strokeColor=default;strokeWidth=2;" edge="1" parent="XOuvGOcxkD7HM2McUkYF-175" source="XOuvGOcxkD7HM2McUkYF-177" target="XOuvGOcxkD7HM2McUkYF-182">
          <mxGeometry relative="1" as="geometry" />
        </mxCell>
        <mxCell id="XOuvGOcxkD7HM2McUkYF-177" value="" style="strokeWidth=2;html=1;shape=mxgraph.flowchart.start_2;whiteSpace=wrap;" vertex="1" parent="XOuvGOcxkD7HM2McUkYF-175">
          <mxGeometry x="163.60169491525423" y="110.625" width="59.49152542372881" height="59" as="geometry" />
        </mxCell>
        <mxCell id="XOuvGOcxkD7HM2McUkYF-178" value="" style="strokeWidth=8;html=1;shape=mxgraph.flowchart.start_2;whiteSpace=wrap;" vertex="1" parent="XOuvGOcxkD7HM2McUkYF-175">
          <mxGeometry x="1541.0210169491525" y="110.625" width="59.49152542372881" height="59" as="geometry" />
        </mxCell>
        <mxCell id="XOuvGOcxkD7HM2McUkYF-179" value="&lt;span style=&quot;font-size: 20px;&quot;&gt;Download Report from System&lt;/span&gt;" style="rounded=1;whiteSpace=wrap;html=1;strokeWidth=2;" vertex="1" parent="XOuvGOcxkD7HM2McUkYF-175">
          <mxGeometry x="966.7372881355932" y="73.75" width="237.96610169491524" height="132.75" as="geometry" />
        </mxCell>
        <mxCell id="XOuvGOcxkD7HM2McUkYF-180" style="edgeStyle=orthogonalEdgeStyle;rounded=0;orthogonalLoop=1;jettySize=auto;html=1;entryX=0;entryY=0.5;entryDx=0;entryDy=0;entryPerimeter=0;strokeWidth=2;" edge="1" parent="XOuvGOcxkD7HM2McUkYF-175" source="XOuvGOcxkD7HM2McUkYF-179" target="XOuvGOcxkD7HM2McUkYF-178">
          <mxGeometry relative="1" as="geometry">
            <mxPoint x="1027.6566101694914" y="139.6677500000001" as="targetPoint" />
          </mxGeometry>
        </mxCell>
        <mxCell id="XOuvGOcxkD7HM2McUkYF-181" style="edgeStyle=orthogonalEdgeStyle;shape=connector;rounded=0;orthogonalLoop=1;jettySize=auto;html=1;exitX=1;exitY=0.5;exitDx=0;exitDy=0;entryX=0;entryY=0.5;entryDx=0;entryDy=0;labelBackgroundColor=default;fontFamily=Helvetica;fontSize=11;fontColor=default;startArrow=none;startFill=0;endArrow=classic;strokeColor=default;strokeWidth=2;" edge="1" parent="XOuvGOcxkD7HM2McUkYF-175" source="XOuvGOcxkD7HM2McUkYF-182" target="XOuvGOcxkD7HM2McUkYF-179">
          <mxGeometry relative="1" as="geometry" />
        </mxCell>
        <mxCell id="XOuvGOcxkD7HM2McUkYF-182" value="&lt;span style=&quot;font-size: 20px;&quot;&gt;Send Request for Downloading Report&lt;/span&gt;" style="rounded=1;whiteSpace=wrap;html=1;strokeWidth=2;" vertex="1" parent="XOuvGOcxkD7HM2McUkYF-175">
          <mxGeometry x="453.6228813559322" y="73.75" width="237.96610169491524" height="132.75" as="geometry" />
        </mxCell>
        <mxCell id="XOuvGOcxkD7HM2McUkYF-183" value="Weather Station" style="swimlane;horizontal=0;startSize=80;fillStyle=solid;strokeWidth=2;fontSize=20;fontStyle=1" vertex="1" parent="1">
          <mxGeometry x="308.9830508474576" y="755" width="3286.91" height="311" as="geometry" />
        </mxCell>
        <mxCell id="XOuvGOcxkD7HM2McUkYF-184" style="edgeStyle=orthogonalEdgeStyle;rounded=0;orthogonalLoop=1;jettySize=auto;html=1;entryX=0;entryY=0.5;entryDx=0;entryDy=0;strokeWidth=2;" edge="1" parent="XOuvGOcxkD7HM2McUkYF-183" source="XOuvGOcxkD7HM2McUkYF-185" target="XOuvGOcxkD7HM2McUkYF-187">
          <mxGeometry relative="1" as="geometry" />
        </mxCell>
        <mxCell id="XOuvGOcxkD7HM2McUkYF-185" value="" style="strokeWidth=2;html=1;shape=mxgraph.flowchart.start_2;whiteSpace=wrap;" vertex="1" parent="XOuvGOcxkD7HM2McUkYF-183">
          <mxGeometry x="176.98728813559322" y="114.31250000000001" width="59.49152542372881" height="59" as="geometry" />
        </mxCell>
        <mxCell id="XOuvGOcxkD7HM2McUkYF-186" style="edgeStyle=orthogonalEdgeStyle;rounded=0;orthogonalLoop=1;jettySize=auto;html=1;entryX=0.006;entryY=0.441;entryDx=0;entryDy=0;entryPerimeter=0;strokeWidth=2;" edge="1" parent="XOuvGOcxkD7HM2McUkYF-183" source="XOuvGOcxkD7HM2McUkYF-187" target="XOuvGOcxkD7HM2McUkYF-189">
          <mxGeometry relative="1" as="geometry" />
        </mxCell>
        <mxCell id="XOuvGOcxkD7HM2McUkYF-187" value="&lt;font style=&quot;font-size: 20px;&quot;&gt;Collect Data from Weather monitoring Devices&lt;/font&gt;" style="rounded=1;whiteSpace=wrap;html=1;strokeWidth=2;" vertex="1" parent="XOuvGOcxkD7HM2McUkYF-183">
          <mxGeometry x="467.00847457627117" y="77.4375" width="237.96610169491524" height="132.75" as="geometry" />
        </mxCell>
        <mxCell id="XOuvGOcxkD7HM2McUkYF-188" style="edgeStyle=orthogonalEdgeStyle;rounded=0;orthogonalLoop=1;jettySize=auto;html=1;strokeWidth=2;" edge="1" parent="XOuvGOcxkD7HM2McUkYF-183" source="XOuvGOcxkD7HM2McUkYF-189" target="XOuvGOcxkD7HM2McUkYF-192">
          <mxGeometry relative="1" as="geometry">
            <mxPoint x="1502.16" y="150.84500000000025" as="targetPoint" />
          </mxGeometry>
        </mxCell>
        <mxCell id="XOuvGOcxkD7HM2McUkYF-189" value="&lt;font style=&quot;font-size: 20px;&quot;&gt;Send Data to Forest Ministry Representative&lt;/font&gt;" style="rounded=1;whiteSpace=wrap;html=1;strokeWidth=2;" vertex="1" parent="XOuvGOcxkD7HM2McUkYF-183">
          <mxGeometry x="1039.6144067796608" y="84.8125" width="237.96610169491524" height="132.75" as="geometry" />
        </mxCell>
        <mxCell id="XOuvGOcxkD7HM2McUkYF-190" value="&lt;font style=&quot;font-size: 20px;&quot;&gt;Download Report from System&lt;/font&gt;" style="rounded=1;whiteSpace=wrap;html=1;strokeWidth=2;" vertex="1" parent="XOuvGOcxkD7HM2McUkYF-183">
          <mxGeometry x="1841.0128813559324" y="84.81000000000006" width="237.96610169491524" height="132.75" as="geometry" />
        </mxCell>
        <mxCell id="XOuvGOcxkD7HM2McUkYF-191" style="edgeStyle=orthogonalEdgeStyle;rounded=0;orthogonalLoop=1;jettySize=auto;html=1;strokeWidth=2;" edge="1" parent="XOuvGOcxkD7HM2McUkYF-183" source="XOuvGOcxkD7HM2McUkYF-190" target="XOuvGOcxkD7HM2McUkYF-194">
          <mxGeometry relative="1" as="geometry">
            <mxPoint x="2242.446610169492" y="150.72775000000013" as="targetPoint" />
          </mxGeometry>
        </mxCell>
        <mxCell id="XOuvGOcxkD7HM2McUkYF-192" value="&lt;font style=&quot;font-size: 20px;&quot;&gt;Send Request for Downloading Report&lt;/font&gt;" style="rounded=1;whiteSpace=wrap;html=1;strokeWidth=2;" vertex="1" parent="XOuvGOcxkD7HM2McUkYF-183">
          <mxGeometry x="1481.0128813559322" y="84.81000000000006" width="237.96610169491524" height="132.75" as="geometry" />
        </mxCell>
        <mxCell id="XOuvGOcxkD7HM2McUkYF-193" style="edgeStyle=orthogonalEdgeStyle;rounded=0;orthogonalLoop=1;jettySize=auto;html=1;strokeWidth=2;" edge="1" parent="XOuvGOcxkD7HM2McUkYF-183" source="XOuvGOcxkD7HM2McUkYF-192" target="XOuvGOcxkD7HM2McUkYF-190">
          <mxGeometry relative="1" as="geometry">
            <mxPoint x="1482.03593220339" y="-278.96529411764686" as="sourcePoint" />
            <mxPoint x="1532.0338983050847" y="-272.63" as="targetPoint" />
          </mxGeometry>
        </mxCell>
        <mxCell id="XOuvGOcxkD7HM2McUkYF-194" value="" style="strokeWidth=8;html=1;shape=mxgraph.flowchart.start_2;whiteSpace=wrap;" vertex="1" parent="XOuvGOcxkD7HM2McUkYF-183">
          <mxGeometry x="2281.0210169491525" y="121.69000000000005" width="59.49152542372881" height="59" as="geometry" />
        </mxCell>
        <mxCell id="XOuvGOcxkD7HM2McUkYF-195" value="City CorporationÂ " style="swimlane;horizontal=0;startSize=80;strokeWidth=2;fontSize=20;" vertex="1" parent="1">
          <mxGeometry x="308.9830508474576" y="460" width="3286.906779661017" height="295" as="geometry" />
        </mxCell>
        <mxCell id="XOuvGOcxkD7HM2McUkYF-196" value="" style="strokeWidth=2;html=1;shape=mxgraph.flowchart.start_2;whiteSpace=wrap;" vertex="1" parent="XOuvGOcxkD7HM2McUkYF-195">
          <mxGeometry x="161.95169491525422" y="114.31500000000005" width="59.49152542372881" height="59" as="geometry" />
        </mxCell>
        <mxCell id="XOuvGOcxkD7HM2McUkYF-197" value="" style="strokeWidth=8;html=1;shape=mxgraph.flowchart.start_2;whiteSpace=wrap;" vertex="1" parent="XOuvGOcxkD7HM2McUkYF-195">
          <mxGeometry x="1911.0210169491525" y="121.69000000000005" width="59.49152542372881" height="59" as="geometry" />
        </mxCell>
        <mxCell id="XOuvGOcxkD7HM2McUkYF-198" value="&lt;font style=&quot;font-size: 20px;&quot;&gt;Download Report from System&lt;/font&gt;" style="rounded=1;whiteSpace=wrap;html=1;strokeWidth=2;" vertex="1" parent="XOuvGOcxkD7HM2McUkYF-195">
          <mxGeometry x="781.0128813559322" y="77.44000000000005" width="237.96610169491524" height="132.75" as="geometry" />
        </mxCell>
        <mxCell id="XOuvGOcxkD7HM2McUkYF-199" style="edgeStyle=orthogonalEdgeStyle;rounded=0;orthogonalLoop=1;jettySize=auto;html=1;strokeWidth=2;" edge="1" parent="XOuvGOcxkD7HM2McUkYF-195" source="XOuvGOcxkD7HM2McUkYF-196" target="XOuvGOcxkD7HM2McUkYF-205">
          <mxGeometry relative="1" as="geometry">
            <mxPoint x="411.0169491525424" y="144" as="targetPoint" />
          </mxGeometry>
        </mxCell>
        <mxCell id="XOuvGOcxkD7HM2McUkYF-200" style="edgeStyle=orthogonalEdgeStyle;rounded=0;orthogonalLoop=1;jettySize=auto;html=1;strokeWidth=2;" edge="1" parent="XOuvGOcxkD7HM2McUkYF-195" source="XOuvGOcxkD7HM2McUkYF-201" target="XOuvGOcxkD7HM2McUkYF-203">
          <mxGeometry relative="1" as="geometry">
            <mxPoint x="1501.0169491525423" y="151" as="targetPoint" />
          </mxGeometry>
        </mxCell>
        <mxCell id="XOuvGOcxkD7HM2McUkYF-201" value="&lt;font style=&quot;font-size: 20px;&quot;&gt;Receive Information about changes in the System from City Corporation Representative&lt;/font&gt;" style="rounded=1;whiteSpace=wrap;html=1;strokeWidth=2;" vertex="1" parent="XOuvGOcxkD7HM2McUkYF-195">
          <mxGeometry x="1161.0188135593219" y="84.81500000000005" width="237.96610169491524" height="132.75" as="geometry" />
        </mxCell>
        <mxCell id="XOuvGOcxkD7HM2McUkYF-202" style="edgeStyle=orthogonalEdgeStyle;rounded=0;orthogonalLoop=1;jettySize=auto;html=1;entryX=0.006;entryY=0.441;entryDx=0;entryDy=0;entryPerimeter=0;strokeWidth=2;" edge="1" parent="XOuvGOcxkD7HM2McUkYF-195" source="XOuvGOcxkD7HM2McUkYF-198" target="XOuvGOcxkD7HM2McUkYF-201">
          <mxGeometry relative="1" as="geometry" />
        </mxCell>
        <mxCell id="XOuvGOcxkD7HM2McUkYF-203" value="&lt;font style=&quot;font-size: 20px;&quot;&gt;Make Changes in the System&lt;/font&gt;" style="rounded=1;whiteSpace=wrap;html=1;strokeWidth=2;" vertex="1" parent="XOuvGOcxkD7HM2McUkYF-195">
          <mxGeometry x="1501.0188135593219" y="84.815" width="237.96610169491524" height="132.75" as="geometry" />
        </mxCell>
        <mxCell id="XOuvGOcxkD7HM2McUkYF-204" style="edgeStyle=orthogonalEdgeStyle;rounded=0;orthogonalLoop=1;jettySize=auto;html=1;strokeWidth=2;" edge="1" parent="XOuvGOcxkD7HM2McUkYF-195" source="XOuvGOcxkD7HM2McUkYF-203" target="XOuvGOcxkD7HM2McUkYF-197">
          <mxGeometry relative="1" as="geometry">
            <mxPoint x="1751.0149152542372" y="150.60000000000002" as="sourcePoint" />
            <mxPoint x="1891.0169491525423" y="151" as="targetPoint" />
          </mxGeometry>
        </mxCell>
        <mxCell id="XOuvGOcxkD7HM2McUkYF-205" value="&lt;font style=&quot;font-size: 20px;&quot;&gt;Send Request for Downloading Report&lt;/font&gt;" style="rounded=1;whiteSpace=wrap;html=1;strokeWidth=2;" vertex="1" parent="XOuvGOcxkD7HM2McUkYF-195">
          <mxGeometry x="451.0128813559323" y="77.44000000000005" width="237.96610169491524" height="132.75" as="geometry" />
        </mxCell>
        <mxCell id="XOuvGOcxkD7HM2McUkYF-206" style="edgeStyle=orthogonalEdgeStyle;rounded=0;orthogonalLoop=1;jettySize=auto;html=1;strokeWidth=2;" edge="1" parent="XOuvGOcxkD7HM2McUkYF-195" source="XOuvGOcxkD7HM2McUkYF-205" target="XOuvGOcxkD7HM2McUkYF-198">
          <mxGeometry relative="1" as="geometry">
            <mxPoint x="711.0189830508477" y="153.66470588235313" as="sourcePoint" />
            <mxPoint x="761.0169491525423" y="160" as="targetPoint" />
          </mxGeometry>
        </mxCell>
        <mxCell id="XOuvGOcxkD7HM2McUkYF-207" value="Human" style="swimlane;horizontal=0;startSize=80;strokeWidth=2;fontSize=20;" vertex="1" parent="1">
          <mxGeometry x="308.9830508474576" y="166" width="3286.906779661017" height="295" as="geometry" />
        </mxCell>
        <mxCell id="XOuvGOcxkD7HM2McUkYF-208" value="" style="strokeWidth=2;html=1;shape=mxgraph.flowchart.start_2;whiteSpace=wrap;" vertex="1" parent="XOuvGOcxkD7HM2McUkYF-207">
          <mxGeometry x="161.95169491525422" y="110.87500000000006" width="59.49152542372881" height="59" as="geometry" />
        </mxCell>
        <mxCell id="XOuvGOcxkD7HM2McUkYF-209" style="edgeStyle=orthogonalEdgeStyle;rounded=0;orthogonalLoop=1;jettySize=auto;html=1;entryX=0;entryY=0.5;entryDx=0;entryDy=0;strokeWidth=2;" edge="1" parent="XOuvGOcxkD7HM2McUkYF-207" source="XOuvGOcxkD7HM2McUkYF-208" target="XOuvGOcxkD7HM2McUkYF-210">
          <mxGeometry relative="1" as="geometry" />
        </mxCell>
        <mxCell id="XOuvGOcxkD7HM2McUkYF-210" value="&lt;font style=&quot;font-size: 20px;&quot;&gt;Collect Data from Weather Station&lt;/font&gt;" style="rounded=1;whiteSpace=wrap;html=1;strokeWidth=2;" vertex="1" parent="XOuvGOcxkD7HM2McUkYF-207">
          <mxGeometry x="451.9728813559322" y="74.00000000000006" width="237.96610169491524" height="132.75" as="geometry" />
        </mxCell>
        <mxCell id="XOuvGOcxkD7HM2McUkYF-211" style="edgeStyle=orthogonalEdgeStyle;rounded=0;orthogonalLoop=1;jettySize=auto;html=1;entryX=0.006;entryY=0.441;entryDx=0;entryDy=0;entryPerimeter=0;strokeWidth=2;" edge="1" parent="XOuvGOcxkD7HM2McUkYF-207" target="XOuvGOcxkD7HM2McUkYF-212">
          <mxGeometry relative="1" as="geometry">
            <mxPoint x="689.9389830508474" y="140.07470588235316" as="sourcePoint" />
          </mxGeometry>
        </mxCell>
        <mxCell id="XOuvGOcxkD7HM2McUkYF-212" value="&lt;font style=&quot;font-size: 20px;&quot;&gt;Send Data to forest Ministry&lt;/font&gt;" style="rounded=1;whiteSpace=wrap;html=1;strokeWidth=2;" vertex="1" parent="XOuvGOcxkD7HM2McUkYF-207">
          <mxGeometry x="1024.5788135593218" y="81.12500000000006" width="237.96610169491524" height="132.75" as="geometry" />
        </mxCell>
        <mxCell id="XOuvGOcxkD7HM2McUkYF-213" value="&lt;font style=&quot;font-size: 20px;&quot;&gt;Receive Request to make changes&lt;/font&gt;" style="rounded=1;whiteSpace=wrap;html=1;strokeWidth=2;" vertex="1" parent="XOuvGOcxkD7HM2McUkYF-207">
          <mxGeometry x="1524.468813559322" y="74.00500000000005" width="237.96610169491524" height="132.75" as="geometry" />
        </mxCell>
        <mxCell id="XOuvGOcxkD7HM2McUkYF-214" style="edgeStyle=orthogonalEdgeStyle;rounded=0;orthogonalLoop=1;jettySize=auto;html=1;strokeWidth=2;" edge="1" parent="XOuvGOcxkD7HM2McUkYF-207" source="XOuvGOcxkD7HM2McUkYF-212" target="XOuvGOcxkD7HM2McUkYF-213">
          <mxGeometry relative="1" as="geometry">
            <mxPoint x="1281.0189830508468" y="150.23470588235313" as="sourcePoint" />
            <mxPoint x="1481.0169491525423" y="164" as="targetPoint" />
            <Array as="points">
              <mxPoint x="1451" y="148" />
              <mxPoint x="1451" y="148" />
            </Array>
          </mxGeometry>
        </mxCell>
        <mxCell id="XOuvGOcxkD7HM2McUkYF-215" value="&lt;font style=&quot;font-size: 20px;&quot;&gt;Send Information about changes in the System to the City Corporation&lt;/font&gt;" style="rounded=1;whiteSpace=wrap;html=1;strokeWidth=2;" vertex="1" parent="XOuvGOcxkD7HM2McUkYF-207">
          <mxGeometry x="1951.0188135593219" y="81.12500000000006" width="237.96610169491524" height="132.75" as="geometry" />
        </mxCell>
        <mxCell id="XOuvGOcxkD7HM2McUkYF-216" style="edgeStyle=orthogonalEdgeStyle;rounded=0;orthogonalLoop=1;jettySize=auto;html=1;strokeWidth=2;" edge="1" parent="XOuvGOcxkD7HM2McUkYF-207" source="XOuvGOcxkD7HM2McUkYF-213" target="XOuvGOcxkD7HM2McUkYF-215">
          <mxGeometry relative="1" as="geometry">
            <mxPoint x="1791.0149152542383" y="146.78142857142888" as="sourcePoint" />
            <mxPoint x="1908.0169491525423" y="154" as="targetPoint" />
            <Array as="points">
              <mxPoint x="1811" y="148" />
              <mxPoint x="1811" y="148" />
            </Array>
          </mxGeometry>
        </mxCell>
        <mxCell id="XOuvGOcxkD7HM2McUkYF-217" value="" style="strokeWidth=8;html=1;shape=mxgraph.flowchart.start_2;whiteSpace=wrap;" vertex="1" parent="XOuvGOcxkD7HM2McUkYF-207">
          <mxGeometry x="2393.051016949152" y="118.00000000000006" width="59.49152542372881" height="59" as="geometry" />
        </mxCell>
        <mxCell id="XOuvGOcxkD7HM2McUkYF-218" style="edgeStyle=orthogonalEdgeStyle;rounded=0;orthogonalLoop=1;jettySize=auto;html=1;strokeWidth=2;" edge="1" parent="XOuvGOcxkD7HM2McUkYF-207" source="XOuvGOcxkD7HM2McUkYF-215" target="XOuvGOcxkD7HM2McUkYF-217">
          <mxGeometry relative="1" as="geometry">
            <mxPoint x="2221.0149152542376" y="147.45285714285734" as="sourcePoint" />
            <mxPoint x="2084.063898305085" y="-292.69" as="targetPoint" />
          </mxGeometry>
        </mxCell>
        <mxCell id="XOuvGOcxkD7HM2McUkYF-219" style="edgeStyle=orthogonalEdgeStyle;rounded=0;orthogonalLoop=1;jettySize=auto;html=1;dashed=1;startArrow=oval;startFill=0;endArrow=classic;endFill=1;strokeWidth=2;startSize=12;" edge="1" parent="1" source="XOuvGOcxkD7HM2McUkYF-189" target="XOuvGOcxkD7HM2McUkYF-210">
          <mxGeometry relative="1" as="geometry">
            <Array as="points">
              <mxPoint x="1467.9830508474577" y="770" />
              <mxPoint x="1029.9830508474577" y="770" />
              <mxPoint x="1029.9830508474577" y="430" />
              <mxPoint x="879.9830508474577" y="430" />
            </Array>
            <mxPoint x="271.0169491525424" y="254" as="targetPoint" />
          </mxGeometry>
        </mxCell>
        <mxCell id="XOuvGOcxkD7HM2McUkYF-220" style="edgeStyle=orthogonalEdgeStyle;rounded=0;orthogonalLoop=1;jettySize=auto;html=1;exitX=0.5;exitY=1;exitDx=0;exitDy=0;dashed=1;startArrow=oval;startFill=0;startSize=12;sourcePerimeterSpacing=0;strokeWidth=2;" edge="1" parent="1" source="XOuvGOcxkD7HM2McUkYF-215" target="XOuvGOcxkD7HM2McUkYF-201">
          <mxGeometry relative="1" as="geometry">
            <Array as="points">
              <mxPoint x="2378.9830508474574" y="480" />
              <mxPoint x="1588.9830508474577" y="480" />
            </Array>
          </mxGeometry>
        </mxCell>
        <mxCell id="XOuvGOcxkD7HM2McUkYF-221" value="Forest Ministry" style="swimlane;horizontal=0;startSize=80;strokeWidth=2;fontSize=20;rounded=0;swimlaneLine=1;" vertex="1" parent="1">
          <mxGeometry x="308.9830508474576" y="-129" width="3286.906779661017" height="295" as="geometry">
            <mxRectangle x="880" y="360" width="40" height="150" as="alternateBounds" />
          </mxGeometry>
        </mxCell>
        <mxCell id="XOuvGOcxkD7HM2McUkYF-222" style="edgeStyle=orthogonalEdgeStyle;rounded=0;orthogonalLoop=1;jettySize=auto;html=1;strokeWidth=2;" edge="1" parent="XOuvGOcxkD7HM2McUkYF-221" source="XOuvGOcxkD7HM2McUkYF-230" target="XOuvGOcxkD7HM2McUkYF-234">
          <mxGeometry relative="1" as="geometry">
            <mxPoint x="2341.017118644067" y="145.38000000000056" as="targetPoint" />
            <mxPoint x="2111.0169491525426" y="149" as="sourcePoint" />
          </mxGeometry>
        </mxCell>
        <mxCell id="XOuvGOcxkD7HM2McUkYF-223" value="&lt;font style=&quot;font-size: 20px;&quot;&gt;Input Data to the System&lt;/font&gt;" style="rounded=1;whiteSpace=wrap;html=1;strokeWidth=2;" vertex="1" parent="XOuvGOcxkD7HM2McUkYF-221">
          <mxGeometry x="1151.012033898305" y="81.125" width="237.96610169491524" height="132.75" as="geometry" />
        </mxCell>
        <mxCell id="XOuvGOcxkD7HM2McUkYF-224" style="edgeStyle=orthogonalEdgeStyle;rounded=0;orthogonalLoop=1;jettySize=auto;html=1;entryX=0;entryY=0.5;entryDx=0;entryDy=0;strokeWidth=2;" edge="1" parent="XOuvGOcxkD7HM2McUkYF-221" source="XOuvGOcxkD7HM2McUkYF-229" target="XOuvGOcxkD7HM2McUkYF-228">
          <mxGeometry relative="1" as="geometry" />
        </mxCell>
        <mxCell id="XOuvGOcxkD7HM2McUkYF-225" style="edgeStyle=orthogonalEdgeStyle;rounded=0;orthogonalLoop=1;jettySize=auto;html=1;exitX=1;exitY=0.441;exitDx=0;exitDy=0;exitPerimeter=0;strokeWidth=2;" edge="1" parent="XOuvGOcxkD7HM2McUkYF-221" source="XOuvGOcxkD7HM2McUkYF-226" target="XOuvGOcxkD7HM2McUkYF-223">
          <mxGeometry relative="1" as="geometry">
            <mxPoint x="1181.0169491525423" y="140" as="targetPoint" />
            <Array as="points">
              <mxPoint x="1190" y="140" />
              <mxPoint x="1190" y="147" />
            </Array>
          </mxGeometry>
        </mxCell>
        <mxCell id="XOuvGOcxkD7HM2McUkYF-226" value="&lt;font style=&quot;font-size: 20px;&quot;&gt;Process the Data&lt;/font&gt;" style="rounded=1;whiteSpace=wrap;html=1;strokeWidth=2;" vertex="1" parent="XOuvGOcxkD7HM2McUkYF-221">
          <mxGeometry x="791.0144067796609" y="81.125" width="237.96610169491524" height="132.75" as="geometry" />
        </mxCell>
        <mxCell id="XOuvGOcxkD7HM2McUkYF-227" style="edgeStyle=orthogonalEdgeStyle;rounded=0;orthogonalLoop=1;jettySize=auto;html=1;exitX=1;exitY=0.5;exitDx=0;exitDy=0;entryX=0;entryY=0.5;entryDx=0;entryDy=0;fontSize=27;strokeWidth=2;" edge="1" parent="XOuvGOcxkD7HM2McUkYF-221" source="XOuvGOcxkD7HM2McUkYF-228" target="XOuvGOcxkD7HM2McUkYF-226">
          <mxGeometry relative="1" as="geometry" />
        </mxCell>
        <mxCell id="XOuvGOcxkD7HM2McUkYF-228" value="&lt;span style=&quot;font-size: 20px;&quot;&gt;Receive&lt;br&gt;data from Forest Ministry Representative&lt;/span&gt;" style="rounded=1;whiteSpace=wrap;html=1;strokeWidth=2;" vertex="1" parent="XOuvGOcxkD7HM2McUkYF-221">
          <mxGeometry x="438.75" y="81.125" width="237.96610169491524" height="132.75" as="geometry" />
        </mxCell>
        <mxCell id="XOuvGOcxkD7HM2McUkYF-229" value="" style="strokeWidth=2;html=1;shape=mxgraph.flowchart.start_2;whiteSpace=wrap;" vertex="1" parent="XOuvGOcxkD7HM2McUkYF-221">
          <mxGeometry x="163.60169491525423" y="118" width="59.49152542372881" height="59" as="geometry" />
        </mxCell>
        <mxCell id="XOuvGOcxkD7HM2McUkYF-230" value="&lt;font style=&quot;font-size: 20px;&quot;&gt;Download Report from System&lt;/font&gt;" style="rounded=1;whiteSpace=wrap;html=1;strokeWidth=2;" vertex="1" parent="XOuvGOcxkD7HM2McUkYF-221">
          <mxGeometry x="1921.0128813559324" y="79" width="237.96610169491524" height="132.75" as="geometry" />
        </mxCell>
        <mxCell id="XOuvGOcxkD7HM2McUkYF-231" value="&lt;font style=&quot;font-size: 20px;&quot;&gt;Send Request for Downloading Report&lt;/font&gt;" style="rounded=1;whiteSpace=wrap;html=1;strokeWidth=2;" vertex="1" parent="XOuvGOcxkD7HM2McUkYF-221">
          <mxGeometry x="1521.0128813559322" y="79" width="237.96610169491524" height="132.75" as="geometry" />
        </mxCell>
        <mxCell id="XOuvGOcxkD7HM2McUkYF-232" style="edgeStyle=orthogonalEdgeStyle;rounded=0;orthogonalLoop=1;jettySize=auto;html=1;strokeWidth=2;" edge="1" parent="XOuvGOcxkD7HM2McUkYF-221" source="XOuvGOcxkD7HM2McUkYF-231" target="XOuvGOcxkD7HM2McUkYF-230">
          <mxGeometry relative="1" as="geometry">
            <mxPoint x="1861.0169491525423" y="139" as="targetPoint" />
            <mxPoint x="1771.0189830508473" y="144.7900000000001" as="sourcePoint" />
          </mxGeometry>
        </mxCell>
        <mxCell id="XOuvGOcxkD7HM2McUkYF-233" style="edgeStyle=orthogonalEdgeStyle;rounded=0;orthogonalLoop=1;jettySize=auto;html=1;strokeWidth=2;" edge="1" parent="XOuvGOcxkD7HM2McUkYF-221" source="XOuvGOcxkD7HM2McUkYF-223" target="XOuvGOcxkD7HM2McUkYF-231">
          <mxGeometry relative="1" as="geometry">
            <mxPoint x="1471.0169491525423" y="179" as="targetPoint" />
            <mxPoint x="1401.0189830508473" y="149.025" as="sourcePoint" />
            <Array as="points">
              <mxPoint x="1471" y="149" />
              <mxPoint x="1471" y="149" />
            </Array>
          </mxGeometry>
        </mxCell>
        <mxCell id="XOuvGOcxkD7HM2McUkYF-234" value="&lt;font style=&quot;font-size: 20px;&quot;&gt;Send Request to make changes in system &lt;br&gt;to the City Corporation Representative&lt;/font&gt;" style="rounded=1;whiteSpace=wrap;html=1;strokeWidth=2;" vertex="1" parent="XOuvGOcxkD7HM2McUkYF-221">
          <mxGeometry x="2351.0128813559327" y="79" width="237.96610169491524" height="132.75" as="geometry" />
        </mxCell>
        <mxCell id="XOuvGOcxkD7HM2McUkYF-235" value="" style="strokeWidth=8;html=1;shape=mxgraph.flowchart.start_2;whiteSpace=wrap;" vertex="1" parent="XOuvGOcxkD7HM2McUkYF-221">
          <mxGeometry x="2841.0210169491525" y="118" width="59.49152542372881" height="59" as="geometry" />
        </mxCell>
        <mxCell id="XOuvGOcxkD7HM2McUkYF-236" style="edgeStyle=orthogonalEdgeStyle;rounded=0;orthogonalLoop=1;jettySize=auto;html=1;strokeWidth=2;" edge="1" parent="XOuvGOcxkD7HM2McUkYF-221" source="XOuvGOcxkD7HM2McUkYF-234" target="XOuvGOcxkD7HM2McUkYF-235">
          <mxGeometry relative="1" as="geometry">
            <mxPoint x="2793.0528813559326" y="148.995" as="targetPoint" />
            <mxPoint x="2601.0189830508484" y="148.995" as="sourcePoint" />
            <Array as="points">
              <mxPoint x="2697" y="149" />
              <mxPoint x="2793" y="148" />
            </Array>
          </mxGeometry>
        </mxCell>
        <mxCell id="XOuvGOcxkD7HM2McUkYF-237" style="edgeStyle=orthogonalEdgeStyle;rounded=0;orthogonalLoop=1;jettySize=auto;html=1;exitX=0.5;exitY=0;exitDx=0;exitDy=0;dashed=1;startArrow=oval;startFill=0;startSize=12;sourcePerimeterSpacing=0;strokeWidth=2;" edge="1" parent="1" source="XOuvGOcxkD7HM2McUkYF-212" target="XOuvGOcxkD7HM2McUkYF-228">
          <mxGeometry relative="1" as="geometry">
            <Array as="points">
              <mxPoint x="1451.9830508474577" y="150" />
              <mxPoint x="866.9830508474577" y="150" />
            </Array>
          </mxGeometry>
        </mxCell>
        <mxCell id="XOuvGOcxkD7HM2McUkYF-238" style="edgeStyle=orthogonalEdgeStyle;rounded=0;orthogonalLoop=1;jettySize=auto;html=1;exitX=0.5;exitY=1;exitDx=0;exitDy=0;dashed=1;startArrow=oval;startFill=0;startSize=12;sourcePerimeterSpacing=0;strokeWidth=2;" edge="1" parent="1" source="XOuvGOcxkD7HM2McUkYF-234" target="XOuvGOcxkD7HM2McUkYF-213">
          <mxGeometry relative="1" as="geometry">
            <mxPoint x="1571.0169491525423" y="379" as="targetPoint" />
            <Array as="points">
              <mxPoint x="2778.9830508474574" y="190" />
              <mxPoint x="1952.9830508474577" y="190" />
            </Array>
          </mxGeometry>
        </mxCell>
        <mxCell id="XOuvGOcxkD7HM2McUkYF-239" value="System" style="swimlane;horizontal=0;startSize=80;strokeWidth=2;fontSize=20;" vertex="1" parent="1">
          <mxGeometry x="310" y="-734" width="3285.89" height="310" as="geometry" />
        </mxCell>
        <mxCell id="XOuvGOcxkD7HM2McUkYF-240" style="edgeStyle=orthogonalEdgeStyle;shape=connector;rounded=0;orthogonalLoop=1;jettySize=auto;html=1;exitX=1;exitY=0.5;exitDx=0;exitDy=0;exitPerimeter=0;labelBackgroundColor=default;fontFamily=Helvetica;fontSize=11;fontColor=default;startArrow=none;startFill=0;endArrow=classic;strokeColor=default;strokeWidth=2;" edge="1" parent="XOuvGOcxkD7HM2McUkYF-239" source="XOuvGOcxkD7HM2McUkYF-241">
          <mxGeometry relative="1" as="geometry">
            <mxPoint x="467.00847457627117" y="132.75" as="targetPoint" />
          </mxGeometry>
        </mxCell>
        <mxCell id="XOuvGOcxkD7HM2McUkYF-241" value="" style="strokeWidth=2;html=1;shape=mxgraph.flowchart.start_2;whiteSpace=wrap;" vertex="1" parent="XOuvGOcxkD7HM2McUkYF-239">
          <mxGeometry x="176.98728813559322" y="103.25" width="59.49152542372881" height="59" as="geometry" />
        </mxCell>
        <mxCell id="XOuvGOcxkD7HM2McUkYF-242" value="" style="strokeWidth=8;html=1;shape=mxgraph.flowchart.start_2;whiteSpace=wrap;" vertex="1" parent="XOuvGOcxkD7HM2McUkYF-239">
          <mxGeometry x="2680.0035593220337" y="103.25" width="59.49152542372881" height="59" as="geometry" />
        </mxCell>
        <mxCell id="XOuvGOcxkD7HM2McUkYF-243" value="&lt;font style=&quot;font-size: 20px;&quot;&gt;Receive Data from the Forest Ministry&lt;/font&gt;" style="rounded=1;whiteSpace=wrap;html=1;strokeWidth=2;" vertex="1" parent="XOuvGOcxkD7HM2McUkYF-239">
          <mxGeometry x="475.9322033898305" y="66.375" width="237.96610169491524" height="132.75" as="geometry" />
        </mxCell>
        <mxCell id="XOuvGOcxkD7HM2McUkYF-244" value="&lt;font style=&quot;font-size: 20px;&quot;&gt;Store data in the System&lt;/font&gt;" style="rounded=1;whiteSpace=wrap;html=1;strokeWidth=2;" vertex="1" parent="XOuvGOcxkD7HM2McUkYF-239">
          <mxGeometry x="922.1186440677966" y="66.375" width="237.96610169491524" height="132.75" as="geometry" />
        </mxCell>
        <mxCell id="XOuvGOcxkD7HM2McUkYF-245" style="edgeStyle=orthogonalEdgeStyle;rounded=0;orthogonalLoop=1;jettySize=auto;html=1;entryX=0;entryY=0.5;entryDx=0;entryDy=0;startArrow=none;startFill=0;endArrow=classic;endFill=1;strokeWidth=2;" edge="1" parent="XOuvGOcxkD7HM2McUkYF-239" source="XOuvGOcxkD7HM2McUkYF-246" target="XOuvGOcxkD7HM2McUkYF-248">
          <mxGeometry relative="1" as="geometry" />
        </mxCell>
        <mxCell id="XOuvGOcxkD7HM2McUkYF-246" value="&lt;font style=&quot;font-size: 20px;&quot;&gt;Receive request for Downloading Report&lt;/font&gt;" style="rounded=1;whiteSpace=wrap;html=1;strokeWidth=2;" vertex="1" parent="XOuvGOcxkD7HM2McUkYF-239">
          <mxGeometry x="1353.4322033898304" y="66.375" width="237.96610169491524" height="132.75" as="geometry" />
        </mxCell>
        <mxCell id="XOuvGOcxkD7HM2McUkYF-247" style="edgeStyle=orthogonalEdgeStyle;rounded=0;orthogonalLoop=1;jettySize=auto;html=1;startArrow=none;startFill=0;endArrow=classic;endFill=1;strokeWidth=2;" edge="1" parent="XOuvGOcxkD7HM2McUkYF-239" source="XOuvGOcxkD7HM2McUkYF-248" target="XOuvGOcxkD7HM2McUkYF-251">
          <mxGeometry relative="1" as="geometry">
            <mxPoint x="2230" y="133" as="targetPoint" />
          </mxGeometry>
        </mxCell>
        <mxCell id="XOuvGOcxkD7HM2McUkYF-248" value="&lt;span style=&quot;font-size: 20px;&quot;&gt;Generate the Report&lt;/span&gt;" style="rounded=1;whiteSpace=wrap;html=1;strokeWidth=2;" vertex="1" parent="XOuvGOcxkD7HM2McUkYF-239">
          <mxGeometry x="1799.6186440677966" y="66.375" width="237.96610169491524" height="132.75" as="geometry" />
        </mxCell>
        <mxCell id="XOuvGOcxkD7HM2McUkYF-249" style="edgeStyle=orthogonalEdgeStyle;rounded=0;orthogonalLoop=1;jettySize=auto;html=1;strokeWidth=2;" edge="1" parent="XOuvGOcxkD7HM2McUkYF-239" source="XOuvGOcxkD7HM2McUkYF-243" target="XOuvGOcxkD7HM2McUkYF-244">
          <mxGeometry relative="1" as="geometry">
            <mxPoint x="921.101694915254" y="142.75" as="targetPoint" />
          </mxGeometry>
        </mxCell>
        <mxCell id="XOuvGOcxkD7HM2McUkYF-250" style="edgeStyle=orthogonalEdgeStyle;rounded=0;orthogonalLoop=1;jettySize=auto;html=1;exitX=1;exitY=0.5;exitDx=0;exitDy=0;strokeWidth=2;" edge="1" parent="XOuvGOcxkD7HM2McUkYF-239" source="XOuvGOcxkD7HM2McUkYF-244" target="XOuvGOcxkD7HM2McUkYF-246">
          <mxGeometry relative="1" as="geometry">
            <mxPoint x="1352.415254237288" y="142.0125" as="targetPoint" />
          </mxGeometry>
        </mxCell>
        <mxCell id="XOuvGOcxkD7HM2McUkYF-251" value="&lt;span style=&quot;font-size: 20px;&quot;&gt;Send Report&lt;/span&gt;" style="rounded=1;whiteSpace=wrap;html=1;strokeWidth=2;" vertex="1" parent="XOuvGOcxkD7HM2McUkYF-239">
          <mxGeometry x="2249.9986440677967" y="66.375" width="237.96610169491524" height="132.75" as="geometry" />
        </mxCell>
        <mxCell id="XOuvGOcxkD7HM2McUkYF-252" style="edgeStyle=orthogonalEdgeStyle;rounded=0;orthogonalLoop=1;jettySize=auto;html=1;startArrow=none;startFill=0;endArrow=classic;endFill=1;strokeWidth=2;" edge="1" parent="XOuvGOcxkD7HM2McUkYF-239" source="XOuvGOcxkD7HM2McUkYF-251" target="XOuvGOcxkD7HM2McUkYF-242">
          <mxGeometry relative="1" as="geometry">
            <mxPoint x="2500.0047457627115" y="132.15999999999997" as="sourcePoint" />
            <mxPoint x="2630" y="132" as="targetPoint" />
          </mxGeometry>
        </mxCell>
        <mxCell id="XOuvGOcxkD7HM2McUkYF-253" style="edgeStyle=orthogonalEdgeStyle;rounded=0;orthogonalLoop=1;jettySize=auto;html=1;startArrow=oval;startFill=0;endArrow=classic;endFill=1;dashed=1;strokeWidth=2;jumpSize=6;startSize=12;" edge="1" parent="1" source="XOuvGOcxkD7HM2McUkYF-182" target="XOuvGOcxkD7HM2McUkYF-246">
          <mxGeometry relative="1" as="geometry">
            <mxPoint x="1600" y="234" as="targetPoint" />
            <Array as="points">
              <mxPoint x="882" y="-400" />
              <mxPoint x="1720" y="-400" />
            </Array>
          </mxGeometry>
        </mxCell>
        <mxCell id="XOuvGOcxkD7HM2McUkYF-254" style="edgeStyle=orthogonalEdgeStyle;rounded=0;orthogonalLoop=1;jettySize=auto;html=1;entryX=0.553;entryY=-0.003;entryDx=0;entryDy=0;entryPerimeter=0;dashed=1;startArrow=oval;startFill=0;endArrow=classic;endFill=1;strokeWidth=2;startSize=12;" edge="1" parent="1" source="XOuvGOcxkD7HM2McUkYF-251" target="XOuvGOcxkD7HM2McUkYF-179">
          <mxGeometry relative="1" as="geometry">
            <Array as="points">
              <mxPoint x="2600" y="-380" />
              <mxPoint x="1407" y="-380" />
            </Array>
          </mxGeometry>
        </mxCell>
        <mxCell id="XOuvGOcxkD7HM2McUkYF-255" value="&lt;b style=&quot;background-color: initial; font-size: 50px;&quot;&gt;&lt;font style=&quot;font-size: 50px;&quot;&gt;Air Quality Index&lt;/font&gt;&lt;/b&gt;" style="rounded=180&#xa;;whiteSpace=wrap;html=1;fontFamily=Helvetica;fontSize=50;fontColor=default;strokeWidth=2;verticalAlign=middle;horizontal=0;" vertex="1" parent="1">
          <mxGeometry x="190" y="-734" width="118.98" height="1800" as="geometry" />
        </mxCell>
        <mxCell id="XOuvGOcxkD7HM2McUkYF-256" style="edgeStyle=orthogonalEdgeStyle;rounded=0;orthogonalLoop=1;jettySize=auto;html=1;exitX=0.5;exitY=0;exitDx=0;exitDy=0;dashed=1;startArrow=oval;startFill=0;startSize=12;sourcePerimeterSpacing=0;strokeWidth=2;" edge="1" parent="1" source="XOuvGOcxkD7HM2McUkYF-231" target="XOuvGOcxkD7HM2McUkYF-246">
          <mxGeometry relative="1" as="geometry">
            <Array as="points">
              <mxPoint x="1949" y="-400" />
              <mxPoint x="1830" y="-400" />
            </Array>
          </mxGeometry>
        </mxCell>
        <mxCell id="XOuvGOcxkD7HM2McUkYF-257" style="edgeStyle=orthogonalEdgeStyle;rounded=0;orthogonalLoop=1;jettySize=auto;html=1;dashed=1;startArrow=oval;startFill=0;startSize=12;sourcePerimeterSpacing=0;strokeWidth=2;" edge="1" parent="1" source="XOuvGOcxkD7HM2McUkYF-251" target="XOuvGOcxkD7HM2McUkYF-230">
          <mxGeometry relative="1" as="geometry">
            <Array as="points">
              <mxPoint x="2720" y="-180" />
              <mxPoint x="2360" y="-180" />
            </Array>
          </mxGeometry>
        </mxCell>
        <mxCell id="XOuvGOcxkD7HM2McUkYF-258" style="edgeStyle=orthogonalEdgeStyle;rounded=0;orthogonalLoop=1;jettySize=auto;html=1;exitX=0.5;exitY=0;exitDx=0;exitDy=0;dashed=1;startArrow=oval;startFill=0;startSize=12;sourcePerimeterSpacing=0;strokeWidth=2;" edge="1" parent="1" source="XOuvGOcxkD7HM2McUkYF-205" target="XOuvGOcxkD7HM2McUkYF-246">
          <mxGeometry relative="1" as="geometry">
            <Array as="points">
              <mxPoint x="879" y="490" />
              <mxPoint x="650" y="490" />
              <mxPoint x="650" y="-90" />
              <mxPoint x="1760" y="-90" />
            </Array>
          </mxGeometry>
        </mxCell>
        <mxCell id="XOuvGOcxkD7HM2McUkYF-259" style="edgeStyle=orthogonalEdgeStyle;rounded=0;orthogonalLoop=1;jettySize=auto;html=1;dashed=1;startArrow=oval;startFill=0;startSize=12;sourcePerimeterSpacing=0;strokeWidth=2;" edge="1" parent="1" source="XOuvGOcxkD7HM2McUkYF-251" target="XOuvGOcxkD7HM2McUkYF-198">
          <mxGeometry relative="1" as="geometry">
            <Array as="points">
              <mxPoint x="2660" y="-230" />
              <mxPoint x="2169" y="-230" />
              <mxPoint x="2169" y="430" />
              <mxPoint x="1209" y="430" />
            </Array>
          </mxGeometry>
        </mxCell>
        <mxCell id="XOuvGOcxkD7HM2McUkYF-260" style="edgeStyle=orthogonalEdgeStyle;rounded=0;orthogonalLoop=1;jettySize=auto;html=1;exitX=0.5;exitY=0;exitDx=0;exitDy=0;dashed=1;startArrow=oval;startFill=0;startSize=12;sourcePerimeterSpacing=0;strokeWidth=2;" edge="1" parent="1" source="XOuvGOcxkD7HM2McUkYF-192" target="XOuvGOcxkD7HM2McUkYF-246">
          <mxGeometry relative="1" as="geometry">
            <Array as="points">
              <mxPoint x="1909" y="740" />
              <mxPoint x="1790" y="740" />
            </Array>
          </mxGeometry>
        </mxCell>
        <mxCell id="XOuvGOcxkD7HM2McUkYF-261" style="edgeStyle=orthogonalEdgeStyle;rounded=0;orthogonalLoop=1;jettySize=auto;html=1;dashed=1;startArrow=oval;startFill=0;startSize=12;sourcePerimeterSpacing=0;strokeWidth=2;" edge="1" parent="1" source="XOuvGOcxkD7HM2McUkYF-251" target="XOuvGOcxkD7HM2McUkYF-190">
          <mxGeometry relative="1" as="geometry">
            <mxPoint x="2627.2857142857147" y="1622.5714285714284" as="targetPoint" />
            <mxPoint x="2640" y="234" as="sourcePoint" />
            <Array as="points">
              <mxPoint x="2750" y="-460" />
              <mxPoint x="2960" y="-460" />
              <mxPoint x="2960" y="780" />
              <mxPoint x="2269" y="780" />
            </Array>
          </mxGeometry>
        </mxCell>
      </root>
    </mxGraphModel>
  </diagram>
</mxfile>
